<?xml version="1.0" encoding="utf-8"?>
<!-- Generator: Adobe Illustrator 26.0.2, SVG Export Plug-In . SVG Version: 6.00 Build 0)  -->
<svg version="1.1" id="Calque_1" xmlns="http://www.w3.org/2000/svg" xmlns:xlink="http://www.w3.org/1999/xlink" x="0px" y="0px"
	 viewBox="0 0 54.95 132" style="enable-background:new 0 0 54.95 132;" xml:space="preserve">
<style type="text/css">
	.st0{fill:#D9B970;}
	.st1{fill:none;stroke:#000000;stroke-width:2;stroke-miterlimit:10;}
	.st2{fill:none;stroke:#000000;stroke-miterlimit:10;}
	.st3{fill:none;stroke:#000000;stroke-width:3;stroke-miterlimit:10;}
</style>
<g>
	<g>
		<polygon class="st0" points="1.93,98.52 1.93,33.68 27.29,2.57 52.65,33.68 52.65,98.52 27.29,129.63 		"/>
		<path d="M27.29,4.95l23.86,29.27v63.77l-23.86,29.27L3.43,97.98V34.22L27.29,4.95 M27.29,0.2L0.43,33.15v65.9L27.29,132
			l26.86-32.95v-65.9L27.29,0.2L27.29,0.2z"/>
	</g>
	<g>
		<line class="st1" x1="0.58" y1="59.37" x2="27.23" y2="96.97"/>
	</g>
	<line class="st2" x1="0.58" y1="98.95" x2="27.23" y2="96.97"/>
	<line class="st3" x1="27.23" y1="0" x2="27.23" y2="131.8"/>
	<line class="st1" x1="27.23" y1="96.97" x2="18.72" y2="121.31"/>
	<line class="st1" x1="54.43" y1="33.25" x2="27.79" y2="49.48"/>
	<line class="st1" x1="27.79" y1="49.48" x2="50.47" y2="104.1"/>
	<g>
		<line class="st2" x1="27.79" y1="49.48" x2="54.43" y2="64.12"/>
	</g>
</g>
</svg>
